Coordinates
version=1
nRows=34
nColumns=38
inDegrees=no

Units are S.I. units (second, meters, Newtons, ...)
If the header above contains a line with 'inDegrees', this indicates whether rotational values are in degrees (yes) or radians (no).

endheader
time	pelvis_tilt	pelvis_list	pelvis_rotation	pelvis_tx	pelvis_ty	pelvis_tz	hip_flexion_r	hip_adduction_r	hip_rotation_r	knee_angle_r	ankle_angle_r	subtalar_angle_r	mtp_angle_r	hip_flexion_l	hip_adduction_l	hip_rotation_l	knee_angle_l	ankle_angle_l	subtalar_angle_l	mtp_angle_l	lumbar_extension	lumbar_bending	lumbar_rotation	arm_flex_r	arm_add_r	arm_rot_r	elbow_flex_r	pro_sup_r	wrist_flex_r	wrist_dev_r	arm_flex_l	arm_add_l	arm_rot_l	elbow_flex_l	pro_sup_l	wrist_flex_l	wrist_dev_l
4.88	0.96279	1.42654	0.773568	0.647915	0.173896	0.92847	0.273163	0.0512118	-0.105631	0.748777	-0.210663	0	0	-0.0966408	-0.148843	0.0644447	0.0980689	-0.276464	0	0	-0.436984	0.277118	-0.0771054	0.116051	-0.327993	-0.0981709	1.21267	1.5708	0	0	0.106482	-0.108568	-0.129971	1.06611	1.5708	0	0
4.89	0.965159	1.42382	0.772819	0.647445	0.175805	0.928316	0.283964	0.0514166	-0.106715	0.746833	-0.210408	0	0	-0.0979784	-0.151392	0.0654266	0.0960322	-0.276504	0	0	-0.436603	0.280431	-0.0800966	0.112812	-0.329107	-0.0969398	1.21566	1.5708	0	0	0.0982745	-0.107588	-0.13288	1.07189	1.5708	0	0
4.9	0.96461	1.42058	0.774292	0.647091	0.177716	0.928108	0.295889	0.0518152	-0.107701	0.743979	-0.210067	0	0	-0.0984977	-0.154045	0.0655599	0.0943993	-0.276447	0	0	-0.435964	0.283473	-0.0822313	0.109124	-0.330172	-0.0953841	1.21876	1.5708	0	0	0.0898215	-0.106409	-0.135894	1.07803	1.5708	0	0
4.91	0.963612	1.41715	0.775595	0.646823	0.179614	0.927862	0.308376	0.0523046	-0.109081	0.740457	-0.210125	0	0	-0.0987859	-0.156819	0.0648827	0.0928256	-0.276209	0	0	-0.435457	0.286225	-0.0836792	0.105237	-0.330843	-0.094544	1.22191	1.5708	0	0	0.0811522	-0.105307	-0.139015	1.08448	1.5708	0	0
4.92	0.962831	1.41365	0.776154	0.646638	0.181496	0.927611	0.321272	0.0529016	-0.110849	0.736472	-0.210664	0	0	-0.0991016	-0.159712	0.0642921	0.0913609	-0.275835	0	0	-0.435337	0.288709	-0.0844235	0.101104	-0.331434	-0.0940775	1.22522	1.5708	0	0	0.0723386	-0.104305	-0.142322	1.09126	1.5708	0	0
4.93	0.963629	1.40994	0.77462	0.646539	0.183369	0.927394	0.334709	0.0533937	-0.112739	0.732719	-0.211952	0	0	-0.099384	-0.162897	0.0636517	0.0903638	-0.275368	0	0	-0.435754	0.291098	-0.0843462	0.0968303	-0.332522	-0.093458	1.22883	1.5708	0	0	0.0635778	-0.103293	-0.145583	1.09848	1.5708	0	0
4.94	0.965724	1.40632	0.771502	0.646521	0.185248	0.927213	0.347899	0.0543022	-0.114082	0.727881	-0.214096	0	0	-0.0998534	-0.166145	0.0628959	0.0896528	-0.274764	0	0	-0.435927	0.294205	-0.0840847	0.0927144	-0.333497	-0.0924823	1.23277	1.5708	0	0	0.0558354	-0.102516	-0.148367	1.10308	1.5708	0	0
4.95	0.969098	1.40271	0.766911	0.646526	0.187134	0.927035	0.360834	0.0555797	-0.115153	0.722319	-0.217437	0	0	-0.100524	-0.169465	0.0621682	0.0889814	-0.273962	0	0	-0.436406	0.297438	-0.083721	0.0886495	-0.334615	-0.0911334	1.23706	1.5708	0	0	0.0482532	-0.101558	-0.151377	1.1075	1.5708	0	0
4.96	0.973631	1.39924	0.761181	0.646536	0.189042	0.926848	0.373594	0.0567293	-0.116701	0.716935	-0.221361	0	0	-0.101483	-0.17279	0.0620056	0.0884909	-0.273019	0	0	-0.437139	0.300595	-0.0835707	0.084719	-0.335443	-0.0898751	1.24133	1.5708	0	0	0.0404312	-0.100403	-0.154781	1.11188	1.5708	0	0
4.97	0.979866	1.39591	0.753616	0.646545	0.190984	0.926647	0.386322	0.0576089	-0.119362	0.712119	-0.225873	0	0	-0.102909	-0.17622	0.0619816	0.0880155	-0.271762	0	0	-0.43808	0.303526	-0.0834463	0.0810648	-0.335915	-0.088558	1.24488	1.5708	0	0	0.0322873	-0.0991804	-0.158368	1.11654	1.5708	0	0
4.98	0.986252	1.3925	0.746109	0.646549	0.192962	0.926441	0.399095	0.058342	-0.122678	0.707298	-0.231116	0	0	-0.104294	-0.179757	0.0626497	0.0877046	-0.270355	0	0	-0.439046	0.306579	-0.0834533	0.0771729	-0.33597	-0.0878839	1.24856	1.5708	0	0	0.0239659	-0.0980469	-0.161869	1.12176	1.5708	0	0
4.99	0.99205	1.38916	0.73938	0.646549	0.194954	0.92623	0.411472	0.0592406	-0.12557	0.70136	-0.236834	0	0	-0.105558	-0.183126	0.0642203	0.0878851	-0.268654	0	0	-0.440119	0.309525	-0.0833239	0.0728286	-0.335825	-0.0881319	1.2526	1.5708	0	0	0.0155638	-0.0970743	-0.165039	1.12736	1.5708	0	0
5	0.998213	1.38614	0.732595	0.646502	0.197015	0.926017	0.423146	0.0597947	-0.128806	0.694996	-0.242407	0	0	-0.107092	-0.186298	0.0661419	0.0881527	-0.267016	0	0	-0.441466	0.312338	-0.0830776	0.0678354	-0.335775	-0.0891482	1.257	1.5708	0	0	0.0074562	-0.0963498	-0.167596	1.13282	1.5708	0	0
5.01	1.00605	1.38353	0.723981	0.646566	0.19912	0.925846	0.433993	0.0605498	-0.131663	0.688165	-0.247246	0	0	-0.10935	-0.189513	0.0678514	0.0883184	-0.265724	0	0	-0.4433	0.314673	-0.0818979	0.0622161	-0.335645	-0.0909186	1.26118	1.5708	0	0	0.000419421	-0.0961592	-0.168719	1.13706	1.5708	0	0
5.02	1.01557	1.38161	0.71337	0.646671	0.201221	0.925746	0.444457	0.0605996	-0.134813	0.682816	-0.245983	0	0	-0.112627	-0.192288	0.0693301	0.088171	-0.266782	0	0	-0.44425	0.317531	-0.0822539	0.0589017	-0.334599	-0.0906142	1.26312	1.5708	0	0	-0.0056969	-0.0967541	-0.16954	1.13709	1.5708	0	0
5.03	1.0238	1.37983	0.704206	0.646768	0.203359	0.925612	0.454412	0.060523	-0.138794	0.676739	-0.252916	0	0	-0.115482	-0.194733	0.0700344	0.0889241	-0.264782	0	0	-0.44535	0.320291	-0.0841576	0.056408	-0.333455	-0.0888532	1.26522	1.5708	0	0	-0.01317	-0.0968828	-0.172466	1.13839	1.5708	0	0
5.04	1.0313	1.37847	0.695955	0.64687	0.205527	0.925434	0.463347	0.060417	-0.142981	0.669871	-0.258594	0	0	-0.118704	-0.196751	0.0701444	0.0892966	-0.263101	0	0	-0.446317	0.322665	-0.0854697	0.0527921	-0.332543	-0.087841	1.26772	1.5708	0	0	-0.0199389	-0.0970914	-0.174142	1.13857	1.5708	0	0
5.05	1.03649	1.37706	0.689897	0.646957	0.207707	0.925241	0.472413	0.059578	-0.146622	0.663061	-0.265152	0	0	-0.121504	-0.198384	0.0698527	0.0898925	-0.261474	0	0	-0.447124	0.32498	-0.0863754	0.0484053	-0.332023	-0.0867985	1.27072	1.5708	0	0	-0.0264491	-0.0972989	-0.175372	1.13823	1.5708	0	0
5.06	1.03912	1.37578	0.686315	0.647016	0.209906	0.925032	0.481817	0.0577452	-0.14989	0.656788	-0.272193	0	0	-0.123802	-0.199476	0.0692088	0.0909253	-0.259923	0	0	-0.447613	0.32695	-0.0868882	0.043457	-0.331201	-0.087232	1.27399	1.5708	0	0	-0.0325971	-0.0973365	-0.176468	1.13763	1.5708	0	0
5.07	1.03875	1.37456	0.685862	0.647077	0.212147	0.924761	0.490839	0.0559158	-0.153019	0.649295	-0.279496	0	0	-0.125409	-0.20019	0.0684441	0.0922907	-0.258169	0	0	-0.447767	0.328584	-0.0868576	0.0372018	-0.329994	-0.0896245	1.27848	1.5708	0	0	-0.0387068	-0.0972357	-0.177415	1.1378	1.5708	0	0
5.08	1.03904	1.374	0.684859	0.647159	0.214444	0.924477	0.497826	0.0545533	-0.156061	0.640471	-0.284867	0	0	-0.127322	-0.200695	0.0669193	0.0940357	-0.256577	0	0	-0.448291	0.329633	-0.0862383	0.0300154	-0.328992	-0.092254	1.28329	1.5708	0	0	-0.0445034	-0.0973228	-0.177721	1.13843	1.5708	0	0
5.09	1.03926	1.37368	0.683943	0.647259	0.216768	0.924226	0.504476	0.0526195	-0.158878	0.632414	-0.290786	0	0	-0.129186	-0.201187	0.0651823	0.0961186	-0.255094	0	0	-0.449242	0.330474	-0.0850832	0.0221065	-0.327941	-0.0956376	1.28885	1.5708	0	0	-0.0499505	-0.0973897	-0.177657	1.13903	1.5708	0	0
5.1	1.03985	1.37373	0.682777	0.647359	0.219133	0.923986	0.509514	0.0508926	-0.161727	0.622868	-0.29745	0	0	-0.131137	-0.201454	0.0632903	0.0986696	-0.253483	0	0	-0.450541	0.331231	-0.0836851	0.013571	-0.326558	-0.100142	1.29506	1.5708	0	0	-0.0549266	-0.0973505	-0.177388	1.1391	1.5708	0	0
5.11	1.04132	1.37382	0.680566	0.647456	0.221488	0.923776	0.514483	0.0484828	-0.165193	0.613814	-0.305626	0	0	-0.132887	-0.201813	0.0608387	0.10189	-0.252121	0	0	-0.451965	0.331995	-0.0821988	0.00529923	-0.324871	-0.104913	1.30094	1.5708	0	0	-0.0595966	-0.0971107	-0.17733	1.13853	1.5708	0	0
5.12	1.04261	1.37387	0.678535	0.647569	0.223869	0.92356	0.51909	0.0460922	-0.169269	0.604933	-0.313857	0	0	-0.134333	-0.202237	0.0578202	0.105624	-0.250969	0	0	-0.453226	0.332767	-0.0805795	-0.00318546	-0.323041	-0.110006	1.30662	1.5708	0	0	-0.0639788	-0.0968034	-0.177214	1.13729	1.5708	0	0
5.13	1.04406	1.37407	0.676478	0.647743	0.226335	0.923325	0.522262	0.0443959	-0.17399	0.595535	-0.320333	0	0	-0.135994	-0.202663	0.0545321	0.109335	-0.249708	0	0	-0.454386	0.333351	-0.0787648	-0.0122036	-0.321191	-0.11534	1.31204	1.5708	0	0	-0.0682882	-0.0965617	-0.17679	1.13577	1.5708	0	0
5.14	1.04577	1.37461	0.67459	0.647903	0.22886	0.92308	0.523631	0.0429646	-0.178634	0.58495	-0.323852	0	0	-0.137923	-0.20291	0.0515926	0.113109	-0.248361	0	0	-0.455551	0.333732	-0.0769147	-0.0219197	-0.319393	-0.121105	1.31742	1.5708	0	0	-0.0725047	-0.0962908	-0.175895	1.13421	1.5708	0	0
5.15	1.04769	1.37547	0.672619	0.648021	0.231419	0.922864	0.524006	0.0413788	-0.182544	0.574241	-0.325183	0	0	-0.140092	-0.202883	0.0490812	0.116891	-0.247085	0	0	-0.456999	0.333908	-0.0746931	-0.0322785	-0.317763	-0.127333	1.32326	1.5708	0	0	-0.0765432	-0.0957182	-0.174826	1.13253	1.5708	0	0
5.16	1.05074	1.37674	0.669708	0.648068	0.234031	0.922688	0.523143	0.0397612	-0.185297	0.56359	-0.325765	0	0	-0.142546	-0.202671	0.04681	0.120994	-0.246042	0	0	-0.45884	0.333949	-0.0722647	-0.043061	-0.316561	-0.133576	1.32948	1.5708	0	0	-0.0802121	-0.0950447	-0.173291	1.13014	1.5708	0	0
5.17	1.05539	1.37829	0.665611	0.64808	0.236701	0.922543	0.52105	0.0383574	-0.187246	0.553293	-0.327164	0	0	-0.145201	-0.20259	0.0450378	0.125338	-0.24525	0	0	-0.461029	0.334074	-0.0700365	-0.0540227	-0.315361	-0.139847	1.33577	1.5708	0	0	-0.083619	-0.0945297	-0.171303	1.12697	1.5708	0	0
5.18	1.06203	1.38007	0.659655	0.64812	0.239463	0.922408	0.517819	0.0373808	-0.18826	0.543958	-0.330085	0	0	-0.148426	-0.202693	0.044095	0.129618	-0.244533	0	0	-0.46345	0.334282	-0.0678603	-0.0650964	-0.313625	-0.146706	1.342	1.5708	0	0	-0.0869742	-0.0941177	-0.169138	1.1235	1.5708	0	0
5.19	1.07083	1.38219	0.651676	0.648195	0.242306	0.922312	0.513324	0.0367598	-0.18847	0.535389	-0.334602	0	0	-0.152252	-0.202883	0.0438799	0.133885	-0.243838	0	0	-0.465512	0.334888	-0.0650293	-0.0768576	-0.311271	-0.154954	1.34835	1.5708	0	0	-0.0889367	-0.0937881	-0.166065	1.11787	1.5708	0	0
5.2	1.08092	1.38445	0.642483	0.648293	0.245203	0.922235	0.508014	0.036431	-0.188059	0.527996	-0.340605	0	0	-0.156344	-0.203138	0.0444856	0.138306	-0.243268	0	0	-0.467724	0.335542	-0.0612611	-0.0896117	-0.308813	-0.164031	1.35522	1.5708	0	0	-0.0901314	-0.0935062	-0.162364	1.11172	1.5708	0	0
5.21	1.09103	1.38664	0.63347	0.648407	0.24816	0.922155	0.502445	0.0362088	-0.187623	0.522388	-0.348295	0	0	-0.160264	-0.203495	0.0460943	0.142885	-0.242763	0	0	-0.46976	0.336299	-0.0568061	-0.103287	-0.306266	-0.173587	1.36241	1.5708	0	0	-0.0906471	-0.0932011	-0.158149	1.10492	1.5708	0	0
